# xmcd
# 
# Track frame offsets:
#     150
#     22094
#     41668
#     56547
#     83486
#     112356
#     117121
#     131056
#     154746
#     160151
#     172720
#     196235
#     214749
#     234616
# 
# Disc length: 3345
# 
# Revision: 1
# Processed by: cddbd v1.5.2PL0 Copyright (c) Steve Scherf et al.
# Submitted via: BonkEnc v1.0
# 
DISCID=b80d0f0e
DTITLE=7 (seven) - 7 (seven)
DYEAR=2008
DGENRE=Jazz
TTITLE0=Some Skunk Funk
TTITLE1=Splash
TTITLE2=Freedom Jazz Dance
TTITLE3=A Memory Of Majorca
TTITLE4=Gymnopedies No. 1
TTITLE5=Yenshu Tsubame Gaeshi
TTITLE6=199X
TTITLE7=Amapola
TTITLE8=Memories B2
TTITLE9=Blue Lagoon
TTITLE10=Room Sand
TTITLE11=Runnin'
TTITLE12=Free As A Bird
TTITLE13=Jam Report
EXTD=YEAR: 2008
EXTT0=
EXTT1=
EXTT2=
EXTT3=
EXTT4=
EXTT5=
EXTT6=
EXTT7=
EXTT8=
EXTT9=
EXTT10=
EXTT11=
EXTT12=
EXTT13=
PLAYORDER=
